<svg width="31" height="31" viewBox="0 0 31 31" fill="none" xmlns="http://www.w3.org/2000/svg">
<path d="M26.9179 5.95499C26.2582 5.29495 25.4749 4.77136 24.6127 4.41414C23.7506 4.05691 22.8265 3.87305 21.8933 3.87305C20.9601 3.87305 20.0361 4.05691 19.1739 4.41414C18.3118 4.77136 17.5285 5.29495 16.8688 5.95499L15.4996 7.32415L14.1304 5.95499C12.7978 4.62239 10.9904 3.87374 9.10583 3.87374C7.22125 3.87374 5.41385 4.62239 4.08125 5.95499C2.74865 7.28759 2 9.09499 2 10.9796C2 12.8642 2.74865 14.6716 4.08125 16.0042L5.45042 17.3733L15.4996 27.4225L25.5487 17.3733L26.9179 16.0042C27.578 15.3444 28.1015 14.5611 28.4588 13.699C28.816 12.8369 28.9999 11.9128 28.9999 10.9796C28.9999 10.0464 28.816 9.12229 28.4588 8.26015C28.1015 7.39802 27.578 6.61471 26.9179 5.95499V5.95499Z" fill="#F46748" stroke="#F46748" stroke-linecap="round" stroke-linejoin="round"/>
</svg>
